<svg xmlns="http://www.w3.org/2000/svg" viewBox="0 0 120 120" role="img" aria-labelledby="titleDesc">
  <title id="titleDesc">Logo Plataforma de Currículos</title>
  <defs>
    <linearGradient id="logoGradient" x1="0%" y1="0%" x2="100%" y2="100%">
      <stop offset="0%" stop-color="#3b82f6"/>
      <stop offset="100%" stop-color="#8b5cf6"/>
    </linearGradient>
  </defs>
  <rect x="10" y="10" width="100" height="100" rx="24" fill="#020617"/>
  <path d="M34 18h34a6 6 0 0 1 6 6v18h18a6 6 0 0 1 6 6v50a6 6 0 0 1-6 6H34a6 6 0 0 1-6-6V24a6 6 0 0 1 6-6Z" fill="#0f172a"/>
  <path d="M34 18h34a6 6 0 0 1 6 6v18h18" fill="#111827" opacity="0.95"/>
  <rect x="38" y="40" width="44" height="10" rx="5" fill="#f8fafc" opacity="0.85"/>
  <rect x="38" y="58" width="32" height="8" rx="4" fill="#e2e8f0" opacity="0.8"/>
  <rect x="38" y="70" width="40" height="8" rx="4" fill="#cbd5e1" opacity="0.75"/>
  <rect x="38" y="82" width="28" height="8" rx="4" fill="#e2e8f0" opacity="0.8"/>
  <circle cx="62" cy="98" r="10" fill="url(#logoGradient)"/>
  <path d="M56 98l4 4 10-10" fill="none" stroke="#ffffff" stroke-width="4" stroke-linecap="round" stroke-linejoin="round"/>
</svg>
